{
	"asset":{
		"generator":"Khronos glTF Blender I/O v3.5.30",
		"version":"2.0"
	},
	"scene":0,
	"scenes":[
		{
			"name":"Scene",
			"nodes":[
				0,
				1,
				2
			]
		}
	],
	"nodes":[
		{
			"mesh":0,
			"name":"Im",
			"rotation":[
				0.7071068286895752,
				0,
				0,
				0.7071068286895752
			],
			"translation":[
				-1.9742577075958252,
				0,
				0
			]
		},
		{
			"mesh":1,
			"name":"Text",
			"rotation":[
				0.7071068286895752,
				0,
				0,
				0.7071068286895752
			],
			"translation":[
				-0.4256148338317871,
				0,
				0
			]
		},
		{
			"mesh":2,
			"name":"Text.001",
			"rotation":[
				0.7071068286895752,
				0,
				0,
				0.7071068286895752
			],
			"translation":[
				-1.9265379905700684,
				-0.42839545011520386,
				0
			]
		}
	],
	"materials":[
		{
			"doubleSided":true,
			"name":"Material.001",
			"pbrMetallicRoughness":{
				"metallicFactor":0,
				"roughnessFactor":0.5
			}
		},
		{
			"doubleSided":true,
			"name":"Material.002",
			"pbrMetallicRoughness":{
				"baseColorFactor":[
					0.00651130685582757,
					0.24620096385478973,
					0.9473061561584473,
					1
				],
				"metallicFactor":0,
				"roughnessFactor":0.5
			}
		},
		{
			"doubleSided":true,
			"name":"Material.003",
			"pbrMetallicRoughness":{
				"baseColorFactor":[
					0.20863653719425201,
					0.01599600538611412,
					0.6172065138816833,
					1
				],
				"metallicFactor":0,
				"roughnessFactor":0.5
			}
		}
	],
	"meshes":[
		{
			"name":"Text",
			"primitives":[
				{
					"attributes":{
						"POSITION":0,
						"TEXCOORD_0":1,
						"NORMAL":2
					},
					"indices":3,
					"material":0
				}
			]
		},
		{
			"name":"Text.001",
			"primitives":[
				{
					"attributes":{
						"POSITION":4,
						"TEXCOORD_0":5,
						"NORMAL":6
					},
					"indices":7,
					"material":1
				}
			]
		},
		{
			"name":"Text.002",
			"primitives":[
				{
					"attributes":{
						"POSITION":8,
						"TEXCOORD_0":9,
						"NORMAL":10
					},
					"indices":11,
					"material":2
				}
			]
		}
	],
	"accessors":[
		{
			"bufferView":0,
			"componentType":5126,
			"count":2996,
			"max":[
				0.9277071952819824,
				0.10000000149011612,
				0.009999999776482582
			],
			"min":[
				0.018376845866441727,
				-0.10000000149011612,
				-0.4657321274280548
			],
			"type":"VEC3"
		},
		{
			"bufferView":1,
			"componentType":5126,
			"count":2996,
			"type":"VEC2"
		},
		{
			"bufferView":2,
			"componentType":5126,
			"count":2996,
			"type":"VEC3"
		},
		{
			"bufferView":3,
			"componentType":5123,
			"count":15156,
			"type":"SCALAR"
		},
		{
			"bufferView":4,
			"componentType":5126,
			"count":14920,
			"max":[
				2.8414430618286133,
				0.10000000149011612,
				0.01397465169429779
			],
			"min":[
				-0.014306306838989258,
				-0.10000000149011612,
				-0.42997729778289795
			],
			"type":"VEC3"
		},
		{
			"bufferView":5,
			"componentType":5126,
			"count":14920,
			"type":"VEC2"
		},
		{
			"bufferView":6,
			"componentType":5126,
			"count":14920,
			"type":"VEC3"
		},
		{
			"bufferView":7,
			"componentType":5123,
			"count":75924,
			"type":"SCALAR"
		},
		{
			"bufferView":8,
			"componentType":5126,
			"count":35052,
			"max":[
				6.407843589782715,
				0.10000000149011612,
				0.16323497891426086
			],
			"min":[
				0.0013496950268745422,
				-0.10000000149011612,
				-0.42997729778289795
			],
			"type":"VEC3"
		},
		{
			"bufferView":9,
			"componentType":5126,
			"count":35052,
			"type":"VEC2"
		},
		{
			"bufferView":10,
			"componentType":5126,
			"count":35052,
			"type":"VEC3"
		},
		{
			"bufferView":11,
			"componentType":5123,
			"count":178356,
			"type":"SCALAR"
		}
	],
	"bufferViews":[
		{
			"buffer":0,
			"byteLength":35952,
			"byteOffset":0,
			"target":34962
		},
		{
			"buffer":0,
			"byteLength":23968,
			"byteOffset":35952,
			"target":34962
		},
		{
			"buffer":0,
			"byteLength":35952,
			"byteOffset":59920,
			"target":34962
		},
		{
			"buffer":0,
			"byteLength":30312,
			"byteOffset":95872,
			"target":34963
		},
		{
			"buffer":0,
			"byteLength":179040,
			"byteOffset":126184,
			"target":34962
		},
		{
			"buffer":0,
			"byteLength":119360,
			"byteOffset":305224,
			"target":34962
		},
		{
			"buffer":0,
			"byteLength":179040,
			"byteOffset":424584,
			"target":34962
		},
		{
			"buffer":0,
			"byteLength":151848,
			"byteOffset":603624,
			"target":34963
		},
		{
			"buffer":0,
			"byteLength":420624,
			"byteOffset":755472,
			"target":34962
		},
		{
			"buffer":0,
			"byteLength":280416,
			"byteOffset":1176096,
			"target":34962
		},
		{
			"buffer":0,
			"byteLength":420624,
			"byteOffset":1456512,
			"target":34962
		},
		{
			"buffer":0,
			"byteLength":356712,
			"byteOffset":1877136,
			"target":34963
		}
	],
	"buffers":[
		{
			"byteLength":2233848,
			"uri":"text.bin"
		}
	]
}
